PathFileType	4	(X/Y/Z)	44_1_17_p1_0-198_filt_butterworth.trc
DataRate	CameraRate	NumFrames	NumMarkers	Units	OrigDataRate	OrigDataStartFrame	OrigNumFrames
59.0	59.0	5	27	m	59.0	123	198
Frame#	Time	RHip			RKnee			RAnkle			RBigToe			RSmallToe			RHeel			LHip			LKnee			LAnkle			LBigToe			LSmallToe			LHeel			Neck			Head			Nose			RShoulder			RElbow			RWrist			RThumb			RIndex			RPinky			LShoulder			LElbow			LWrist			LThumb			LIndex			LPinky			
		X1	Y1	Z1	X2	Y2	Z2	X3	Y3	Z3	X4	Y4	Z4	X5	Y5	Z5	X6	Y6	Z6	X7	Y7	Z7	X8	Y8	Z8	X9	Y9	Z9	X10	Y10	Z10	X11	Y11	Z11	X12	Y12	Z12	X13	Y13	Z13	X14	Y14	Z14	X15	Y15	Z15	X16	Y16	Z16	X17	Y17	Z17	X18	Y18	Z18	X19	Y19	Z19	X20	Y20	Z20	X21	Y21	Z21	X22	Y22	Z22	X23	Y23	Z23	X24	Y24	Z24	X25	Y25	Z25	X26	Y26	Z26	X27	Y27	Z27	
123	2.0847457627118646	0.31266190910139174	0.7949589598815993	0.6303008047896363	0.328103166479528	0.37782701266471286	0.6154380948961662	0.3261621155269234	-0.04819016319241011	0.641508258219477	0.31161293685021413	-0.060046388737988746	0.49065460304982994	0.37851454167872645	-0.0517027986609268	0.49395715144525226	0.2962804627069004	-0.1453590426274551	0.7250799198503483	0.12570680091026307	0.7957273169618293	0.6356808909678363	0.10576823496013696	0.37253031549551935	0.6306433099098397	0.10624215848278598	-0.0553307102764541	0.6455441567512453	0.15040603595842195	-0.021762911844788957	0.4486420433954318	0.08538357898276921	-0.0626016976919073	0.5062850565511	0.09398062930835903	-0.14440344551301823	0.7301410704874809	0.2039399505488459	1.320659530289318	0.6667670093837527	0.144018280988581	1.568484918716382	0.6174654640036246	0.1786709472591469	1.4346659058097586	0.552094442098111	0.35834744162094656	1.2640533790701542	0.6558578158791092	0.39318567036956187	1.0394578058105488	0.5343659637482006	0.19794190601093803	1.1379490398274203	0.517306148186202	0.11011436072553993	1.236647491905821	0.49792694606154875	0.1086142172530094	1.252962295441219	0.5094070303275426	0.12220897097461483	1.2119390081245753	0.5006911858900788	0.06532616715854946	1.2352991684606853	0.6966581222401935	0.000337184017655325	0.9827532679072788	0.6668077393835661	0.1035168607774423	1.1392127364800007	0.532285585814924	0.09713999419059455	1.2377380053971292	0.5402212232781258	0.09623461491561242	1.2464046112717337	0.5383344418873707	0.1243223330961486	1.2192691126175537	0.4738438128337755	
124	2.101694915254237	0.31284555762821487	0.7946138350933832	0.6291363141031295	0.3279148957022005	0.377489835248876	0.6148520688329552	0.3261538935575593	-0.048192003508777725	0.6414963815163075	0.31210681137067176	-0.05989982663135114	0.48974594683466727	0.379366260619572	-0.05339153166371868	0.4962093218373089	0.2961469401722669	-0.1446105698283777	0.7241705301264276	0.1252308854947484	0.7954961054278882	0.634988174924347	0.10584093980817494	0.3712299748568706	0.6305762541801199	0.10629912507171824	-0.05484329013501221	0.6454703914556869	0.15020878750110778	-0.021553141779589266	0.4489337473958125	0.08559656211033367	-0.06396587484703284	0.5080406446414569	0.09398500029550169	-0.14424450447717388	0.730189179304887	0.2041758001786776	1.322975441051329	0.6639745567780352	0.14858413909374385	1.571215886390792	0.6131669456287188	0.17842741913790872	1.4387147411883534	0.5525929026578014	0.35810341931597	1.2618965279433922	0.6556602417156654	0.4011862672735624	1.0372277427786758	0.5400544749279512	0.20332404711634725	1.1168884973082047	0.5155260837914014	0.11472043612612175	1.213727699523537	0.48533357115361264	0.11751001676969239	1.2299659574828927	0.49507718354013974	0.13356117241976323	1.1870715781091359	0.4893718531189881	0.06284631542428566	1.234323000215573	0.6839884051951807	-0.0038365004368339493	0.9813778184397826	0.6794885521271239	0.10055819275064454	1.1231150095842335	0.5310483428419344	0.09756373079965291	1.2201750881759832	0.5325459035633737	0.09647306078153883	1.2267630837469972	0.5288555731706481	0.12455706860819298	1.2000845378428457	0.47128662166494395	
125	2.1186440677966103	0.31305170191592846	0.793744822270573	0.62820496014344	0.32775976702746856	0.37690313474926634	0.6142409488494928	0.32614926918296755	-0.048202508068231634	0.6414858925414756	0.312976035071064	-0.06001698197349417	0.488070926400226	0.3801573923151689	-0.05502725163007992	0.49839007700891375	0.29611853338623556	-0.14387642595140807	0.7231745234760117	0.12443981819016947	0.7944899562479384	0.634790021903904	0.10595509673532393	0.3695272522290056	0.6305161018620943	0.10636942124867606	-0.054506550524646424	0.6454225766272865	0.15040824652676815	-0.02178719768047553	0.45001548965709004	0.085758589280363	-0.06454577384299115	0.5090145023081284	0.09400850600830035	-0.14419249275201937	0.7301854237943672	0.2045625954350263	1.325842900838347	0.6606822499354107	0.15266576796857567	1.5739514279919278	0.6088274125109785	0.1780980959950033	1.443455306471154	0.5531239096776994	0.3579363083870616	1.2602380770555281	0.6550074736884346	0.4072214833528621	1.035567299860682	0.5455227903521948	0.20997878608552326	1.0961317293188633	0.5124221815288859	0.12063138287411537	1.191804114261603	0.4733490417511409	0.12705599710568236	1.2058610922357493	0.4785352222424293	0.14523521955996516	1.1610355916644413	0.47559011515057337	0.060759770404977376	1.2343213385548426	0.6708191066515726	-0.0064554459172772305	0.9815258123375267	0.6897603081357984	0.09677157579030315	1.1072759866237758	0.528467914872033	0.09919380781466208	1.2019551990638866	0.5196383874007924	0.09854944214074798	1.2061744303857471	0.5139457687119087	0.12404992995341294	1.1773498674213572	0.46750196554132867	
126	2.135593220338983	0.3133291287847463	0.7925464511537154	0.6274952416904491	0.3276893992353132	0.37602144018235184	0.6136935798536819	0.32614529492159794	-0.048223879360542676	0.6414825716869718	0.31395489039970487	-0.060473166921113514	0.48636214206914824	0.3807932821531518	-0.05637222431372196	0.5002097512742227	0.2960838493992464	-0.1431585770545336	0.7220837912364046	0.12339819176059497	0.7927051257228329	0.6351252158324089	0.10615337656184948	0.3673902310945421	0.6304575003030217	0.10645626053567109	-0.05443123089081614	0.6454263768212927	0.15105078118183313	-0.022705165764408966	0.4520304945562707	0.08591103901047889	-0.06434098289760479	0.509199419650404	0.09404561040139722	-0.14425551306617057	0.7301299870397605	0.20513398013954148	1.329316065149976	0.6577723662007376	0.15609186755527088	1.5765357389359516	0.605075364351974	0.17765462956564515	1.4485529328359363	0.5535420966087479	0.35787622816956965	1.2591693773340848	0.6544068596320799	0.41141188316712896	1.0340742703669652	0.5510286469894292	0.21756800061412598	1.077248239449912	0.5066014582939594	0.12681014630632986	1.1728191938395576	0.4610145357783664	0.1351702227975451	1.1816759952372964	0.46121807570339607	0.15492839357416643	1.1344310848400219	0.46153851020272263	0.05918334906408259	1.235297275902994	0.6597377277541294	-0.007568982865783249	0.9832060324459835	0.6968654624369921	0.09197419178585818	1.092475250501181	0.5238753704794554	0.10175291156920077	1.1844716477343926	0.5021805038044324	0.101789573344865	1.1861742450172592	0.4942556221664927	0.12293845625436439	1.1521218818677712	0.4605621147675987	
127	2.152542372881356	0.3136639015756745	0.7912882609871696	0.6270353896119076	0.3277128256078414	0.37483740272429183	0.6132043023794865	0.32613673280281275	-0.04825192400180618	0.6414809479960578	0.3147437790838099	-0.06132027574723847	0.4855170160252418	0.3811021510386759	-0.05710015783241157	0.5012779033240354	0.29595868090158983	-0.14245944426567791	0.7209788966256692	0.12218234991577988	0.7902715549095224	0.6358329425136808	0.10644463980457468	0.3648053659598767	0.6304078421922772	0.10656468383644883	-0.05468366806204887	0.6454994594038382	0.15196453141204533	-0.024153367018164326	0.4545670354921333	0.08607208694323489	-0.06352654992175322	0.5089030139270381	0.09409234298027698	-0.14446832170027796	0.7300159054919342	0.2059063580078088	1.3332629540319134	0.6557829319894581	0.15881570322679897	1.5788501328238829	0.6024685029638186	0.1771115531957915	1.4535179369751698	0.5537554913090292	0.3578460070852196	1.2586418882955475	0.654105101530578	0.414294768775843	1.032572276059712	0.5574635683094182	0.2256865093325751	1.0616554269469982	0.49737460737274697	0.1328788221644205	1.1575975097728177	0.4489073451159622	0.14057211311235768	1.1581375652477142	0.4452720208273117	0.16070696817995778	1.1074711726055135	0.4499558290229064	0.05796059240747529	1.237107572464675	0.6526565308870094	-0.007622629875321516	0.986281198072343	0.7011338408561822	0.08677243640043747	1.0788092080649407	0.5178115363893029	0.10493913830517473	1.1681668897017945	0.48248334687171013	0.10568829300342031	1.1671595140772142	0.4720007159733669	0.12179816110484437	1.1255892845836681	0.45060137257420096	
